<?xml version="1.0" encoding="iso-8859-1"?>
<!-- Generator: Adobe Illustrator 22.0.0, SVG Export Plug-In . SVG Version: 6.00 Build 0)  -->
<svg version="1.1" id="Layer_1" xmlns="http://www.w3.org/2000/svg" xmlns:xlink="http://www.w3.org/1999/xlink" x="0px" y="0px"
	 viewBox="0 0 1200 800" style="enable-background:new 0 0 1200 800;" xml:space="preserve">
<g>
	<path style="fill-rule:evenodd;clip-rule:evenodd;fill:#FF2526;" d="M210.335,0.326c0,0,129.464,126.117,389.309,126.117
		c259.844,0,389.153-126.117,389.153-126.117H210.335z"/>
	<path style="opacity:0.3;fill-rule:evenodd;clip-rule:evenodd;fill:#240101;" d="M599.644,107.846
		c-196.938,0-318.981-72.443-366.531-107.52h-22.777c0,0,129.464,126.117,389.309,126.117
		c259.844,0,389.153-126.117,389.153-126.117h-22.755C918.535,35.402,796.58,107.846,599.644,107.846z"/>
	<path style="opacity:0.3;fill-rule:evenodd;clip-rule:evenodd;fill:#240101;" d="M276.718,0.326c0,0,143.056,83.691,323.151,83.691
		S918.11,0.327,918.11,0.327l-35.657-1.321c0,0-113.109,74.386-283.036,74.386c-169.926,0-276.209-73.064-276.209-73.064
		L276.718,0.326z"/>
	<path style="opacity:0.3;fill-rule:evenodd;clip-rule:evenodd;fill:#240101;" d="M461.387,0.327c0,0,47.139,34.986,137.096,34.986
		c89.955,0,134.501-34.986,134.501-34.986h31.57c0,0-74.818,46.497-165.64,46.497c-90.819,0-169.964-46.497-169.964-46.497H461.387z
		"/>
</g>
<path style="opacity:0.3;fill-rule:evenodd;clip-rule:evenodd;fill:#240101;" d="M0.001,696.338c0,0,97.104,23.334,90.383-10
	c0,0,35.277-3.334,27.944-22.667s-118.327-30-118.327-30V696.338z"/>
<path style="opacity:0.3;fill-rule:evenodd;clip-rule:evenodd;fill:#240101;" d="M1200.001,696.338c0,0-97.104,23.334-90.383-10
	c0,0-35.277-3.334-27.944-22.667c7.333-19.333,118.327-30,118.327-30V696.338z"/>
<g>
	<path style="fill-rule:evenodd;clip-rule:evenodd;fill:#FF2526;" d="M310.705,0c0,0-24.208,270.181-310.704,367.93V0L310.705,0z"/>
	<path style="opacity:0.3;fill-rule:evenodd;clip-rule:evenodd;fill:#240101;" d="M289.979,0
		C275.968,68.402,218.583,253.39,0.001,335.914v32.017C286.497,270.181,310.705,0,310.705,0H289.979z"/>
	<path style="opacity:0.3;fill-rule:evenodd;clip-rule:evenodd;fill:#240101;" d="M244.663,0c0,0-68.324,201.338-244.662,325.338
		v-10c0,0,165.662-149.677,190.662-315.338H244.663z"/>
	<path style="opacity:0.3;fill-rule:evenodd;clip-rule:evenodd;fill:#240101;" d="M122.332-0.995c0,0-9.993,157.333-122.331,309.333
		v-13c0,0,90.662-172.677,71.662-295.338L122.332-0.995z"/>
	<path style="fill-rule:evenodd;clip-rule:evenodd;fill:#FF2526;" d="M8.555,346.434c-1.735-0.418-3.277,0.18-4.593,1.896
		c-1.457-0.19-2.787,0.756-3.961,3.008v10v4v230.947v44.053v38c0,0,62.662,18,74.662,0c1.122-1.683,1.559-6.25,1.413-13.113
		c11.726,0.717,21.518-1.539,26.254-9.125c2.656-4.254,2.381-16.297-0.027-33.294c5.271-2.344,8.706-6.603,9.36-13.468
		C115.137,572.866,36.171,343.353,8.555,346.434z"/>
	<path style="opacity:0.3;fill-rule:evenodd;clip-rule:evenodd;fill:#240101;" d="M78.33,516.323
		c-19.826-88.063-57.015-150.83-69.288-169.911c-0.164,0.002-0.327,0.004-0.487,0.022c-0.2-0.048-0.398-0.08-0.594-0.101
		c9.988,20.409,42.4,88.444,53.206,133.339c12.837,53.334,42.856,159.233,24.496,168c-18.36,8.767-19.333-41.334-36.667-127.334
		C36.246,457.083,11.957,389.503,0.001,358.18v3.159v4v4.263c16.988,71.46,58.995,251.323,58.995,282.565
		c0,39.161-58.995,12.839-58.995,12.839v13.333c0,0,62.662,18,74.662,0c1.122-1.683,1.559-6.25,1.413-13.113
		c11.726,0.717,21.518-1.539,26.254-9.125c2.656-4.254,2.381-16.297-0.027-33.294c5.271-2.344,8.706-6.603,9.36-13.468
		c0.019-0.209,0.034-0.432,0.049-0.652C97.175,612.79,94.033,586.072,78.33,516.323z"/>
	<path style="opacity:0.5;fill-rule:evenodd;clip-rule:evenodd;fill:#FFEAD6;" d="M0.001,281.672c0,0,71.337-127.344,61.166-281.672
		H26.996c0,0,16.667,101.671-26.666,267.672L0.001,281.672z"/>
	<path style="opacity:0.5;fill-rule:evenodd;clip-rule:evenodd;fill:#FFEAD6;" d="M180.767,0c0,0-44.429,198.338-180.766,315.338v-7
		c0,0,132.984-139.005,139.65-308.338H180.767z"/>
	<path style="opacity:0.5;fill-rule:evenodd;clip-rule:evenodd;fill:#FFEAD6;" d="M286.163,0c0,0-25.051,200.838-230.275,305.338
		c0,0,181.775-91.677,199.775-305.338H286.163z"/>
	<g>
		<path style="fill-rule:evenodd;clip-rule:evenodd;fill:#FFB630;" d="M0.001,331.506c0,0,13.278,20.342,55.887,13.587
			c0,0-14.764,20.975-25.843,23.546c0,0-12.372,7.7-30.044-1.967V331.506z"/>
		<path style="opacity:0.2;fill-rule:evenodd;clip-rule:evenodd;fill:#240101;" d="M30.045,368.64
			c1.656-0.384,3.396-1.187,5.154-2.262c-26.362-1.331-35.198-14.852-35.198-14.852v15.147
			C17.673,376.339,30.045,368.64,30.045,368.64z"/>
	</g>
</g>
<g>
	<path style="fill-rule:evenodd;clip-rule:evenodd;fill:#FF2526;" d="M889.297,0c0,0,24.208,270.181,310.704,367.93V0L889.297,0z"/>
	<path style="opacity:0.3;fill-rule:evenodd;clip-rule:evenodd;fill:#240101;" d="M910.023,0
		c14.012,68.402,71.396,253.39,289.978,335.914v32.017C913.505,270.181,889.297,0,889.297,0H910.023z"/>
	<path style="opacity:0.3;fill-rule:evenodd;clip-rule:evenodd;fill:#240101;" d="M955.339,0c0,0,68.324,201.338,244.662,325.338
		v-10c0,0-165.662-149.677-190.662-315.338H955.339z"/>
	<path style="opacity:0.3;fill-rule:evenodd;clip-rule:evenodd;fill:#240101;" d="M1077.67-0.995c0,0,9.993,157.333,122.331,309.333
		v-13c0,0-90.662-172.677-71.662-295.338L1077.67-0.995z"/>
	<path style="fill-rule:evenodd;clip-rule:evenodd;fill:#FF2526;" d="M1191.447,346.434c1.735-0.418,3.277,0.18,4.593,1.896
		c1.457-0.19,2.787,0.756,3.961,3.008v10v4v230.947v44.053v38c0,0-62.662,18-74.662,0c-1.122-1.683-1.559-6.25-1.413-13.113
		c-11.726,0.717-21.518-1.539-26.254-9.125c-2.656-4.254-2.381-16.297,0.027-33.294c-5.271-2.344-8.706-6.603-9.36-13.468
		C1084.865,572.866,1163.831,343.353,1191.447,346.434z"/>
	<path style="opacity:0.3;fill-rule:evenodd;clip-rule:evenodd;fill:#240101;" d="M1121.672,516.323
		c19.826-88.063,57.015-150.83,69.288-169.911c0.164,0.002,0.327,0.004,0.487,0.022c0.2-0.048,0.398-0.08,0.594-0.101
		c-9.988,20.409-42.4,88.444-53.206,133.339c-12.837,53.334-42.856,159.233-24.496,168s19.333-41.334,36.667-127.334
		c12.75-63.255,37.039-130.835,48.995-162.159v3.159v4v4.263c-16.988,71.46-58.995,251.323-58.995,282.565
		c0,39.161,58.995,12.839,58.995,12.839v13.333c0,0-62.662,18-74.662,0c-1.122-1.683-1.559-6.25-1.413-13.113
		c-11.726,0.717-21.518-1.539-26.254-9.125c-2.656-4.254-2.381-16.297,0.027-33.294c-5.271-2.344-8.706-6.603-9.36-13.468
		c-0.019-0.209-0.034-0.432-0.049-0.652C1102.827,612.79,1105.969,586.072,1121.672,516.323z"/>
	<path style="opacity:0.5;fill-rule:evenodd;clip-rule:evenodd;fill:#FFEAD6;" d="M1200.001,281.672
		c0,0-71.337-127.344-61.166-281.672h34.171c0,0-16.667,101.671,26.666,267.672L1200.001,281.672z"/>
	<path style="opacity:0.5;fill-rule:evenodd;clip-rule:evenodd;fill:#FFEAD6;" d="M1019.235,0c0,0,44.429,198.338,180.766,315.338
		v-7c0,0-132.984-139.005-139.65-308.338H1019.235z"/>
	<path style="opacity:0.5;fill-rule:evenodd;clip-rule:evenodd;fill:#FFEAD6;" d="M913.839,0c0,0,25.051,200.838,230.275,305.338
		c0,0-181.775-91.677-199.775-305.338H913.839z"/>
	<g>
		<path style="fill-rule:evenodd;clip-rule:evenodd;fill:#FFB630;" d="M1200.001,331.506c0,0-13.278,20.342-55.887,13.587
			c0,0,14.764,20.975,25.843,23.546c0,0,12.372,7.7,30.044-1.967V331.506z"/>
		<path style="opacity:0.2;fill-rule:evenodd;clip-rule:evenodd;fill:#240101;" d="M1169.957,368.64
			c-1.656-0.384-3.396-1.187-5.154-2.262c26.362-1.331,35.198-14.852,35.198-14.852v15.147
			C1182.329,376.339,1169.957,368.64,1169.957,368.64z"/>
	</g>
</g>
<g>
</g>
<g>
</g>
<g>
</g>
<g>
</g>
<g>
</g>
<g>
</g>
<g>
</g>
<g>
</g>
<g>
</g>
<g>
</g>
<g>
</g>
<g>
</g>
<g>
</g>
<g>
</g>
<g>
</g>
</svg>
