<?xml version="1.0" encoding="iso-8859-1"?>
<!-- Generator: Adobe Illustrator 22.0.0, SVG Export Plug-In . SVG Version: 6.00 Build 0)  -->
<svg version="1.1" id="Capa_1" xmlns="http://www.w3.org/2000/svg" xmlns:xlink="http://www.w3.org/1999/xlink" x="0px" y="0px"
	 viewBox="-49 141 512 512" style="enable-background:new -49 141 512 512;" xml:space="preserve">
<path style="fill:#FFFFFF;" d="M431,173H-17c-17.632,0-32,14.368-32,32v176c0,132.352,107.648,240,240,240h32
	c132.352,0,240-107.648,240-240V205C463,187.368,448.664,173,431,173z M357.624,355.624l-128,128
	C223.384,489.864,215.192,493,207,493c-8.192,0-16.384-3.136-22.624-9.376l-128-128c-12.512-12.512-12.512-32.736,0-45.248
	c12.512-12.512,32.736-12.512,45.248,0L207,415.752l105.376-105.376c12.512-12.512,32.736-12.512,45.248,0
	C370.136,322.888,370.136,343.112,357.624,355.624z"/>
</svg>
